<mxfile host="65bd71144e">
    <diagram id="mpKVeBibMxxcPqGPweXa" name="Page-1">
        <mxGraphModel dx="1273" dy="649" grid="1" gridSize="10" guides="1" tooltips="1" connect="1" arrows="1" fold="1" page="1" pageScale="1" pageWidth="10000" pageHeight="10000" math="0" shadow="0">
            <root>
                <mxCell id="0"/>
                <mxCell id="1" parent="0"/>
                <mxCell id="2" value="0" style="whiteSpace=wrap;html=1;" vertex="1" parent="1">
                    <mxGeometry x="140" y="180" width="60" height="60" as="geometry"/>
                </mxCell>
                <mxCell id="3" value="1" style="whiteSpace=wrap;html=1;" vertex="1" parent="1">
                    <mxGeometry x="200" y="180" width="60" height="60" as="geometry"/>
                </mxCell>
                <mxCell id="4" value="2" style="whiteSpace=wrap;html=1;fillColor=#dae8fc;strokeColor=#6c8ebf;" vertex="1" parent="1">
                    <mxGeometry x="260" y="180" width="60" height="60" as="geometry"/>
                </mxCell>
                <mxCell id="5" value="3" style="whiteSpace=wrap;html=1;" vertex="1" parent="1">
                    <mxGeometry x="320" y="180" width="60" height="60" as="geometry"/>
                </mxCell>
                <mxCell id="6" value="4" style="whiteSpace=wrap;html=1;" vertex="1" parent="1">
                    <mxGeometry x="380" y="180" width="60" height="60" as="geometry"/>
                </mxCell>
                <mxCell id="7" value="5" style="whiteSpace=wrap;html=1;" vertex="1" parent="1">
                    <mxGeometry x="440" y="180" width="60" height="60" as="geometry"/>
                </mxCell>
                <mxCell id="8" value="6" style="whiteSpace=wrap;html=1;fillColor=#f8cecc;strokeColor=#b85450;" vertex="1" parent="1">
                    <mxGeometry x="500" y="180" width="60" height="60" as="geometry"/>
                </mxCell>
                <mxCell id="9" value="7" style="whiteSpace=wrap;html=1;" vertex="1" parent="1">
                    <mxGeometry x="560" y="180" width="60" height="60" as="geometry"/>
                </mxCell>
                <mxCell id="10" value="n = 8" style="text;html=1;align=center;verticalAlign=middle;resizable=0;points=[];autosize=1;strokeColor=none;fillColor=none;" vertex="1" parent="1">
                    <mxGeometry x="115" y="118" width="50" height="30" as="geometry"/>
                </mxCell>
                <mxCell id="11" value="m=3" style="text;html=1;align=center;verticalAlign=middle;resizable=0;points=[];autosize=1;strokeColor=none;fillColor=none;" vertex="1" parent="1">
                    <mxGeometry x="170" y="118" width="50" height="30" as="geometry"/>
                </mxCell>
                <mxCell id="12" value="0" style="whiteSpace=wrap;html=1;" vertex="1" parent="1">
                    <mxGeometry x="480" y="280" width="60" height="60" as="geometry"/>
                </mxCell>
                <mxCell id="13" value="1" style="whiteSpace=wrap;html=1;" vertex="1" parent="1">
                    <mxGeometry x="540" y="280" width="60" height="60" as="geometry"/>
                </mxCell>
                <mxCell id="15" value="3" style="whiteSpace=wrap;html=1;" vertex="1" parent="1">
                    <mxGeometry x="180" y="280" width="60" height="60" as="geometry"/>
                </mxCell>
                <mxCell id="16" value="4" style="whiteSpace=wrap;html=1;" vertex="1" parent="1">
                    <mxGeometry x="240" y="280" width="60" height="60" as="geometry"/>
                </mxCell>
                <mxCell id="17" value="5" style="whiteSpace=wrap;html=1;fillColor=#dae8fc;strokeColor=#6c8ebf;" vertex="1" parent="1">
                    <mxGeometry x="300" y="280" width="60" height="60" as="geometry"/>
                </mxCell>
                <mxCell id="18" value="6" style="whiteSpace=wrap;html=1;" vertex="1" parent="1">
                    <mxGeometry x="360" y="280" width="60" height="60" as="geometry"/>
                </mxCell>
                <mxCell id="19" value="7" style="whiteSpace=wrap;html=1;" vertex="1" parent="1">
                    <mxGeometry x="420" y="280" width="60" height="60" as="geometry"/>
                </mxCell>
                <mxCell id="20" value="0" style="whiteSpace=wrap;html=1;fillColor=#dae8fc;strokeColor=#6c8ebf;" vertex="1" parent="1">
                    <mxGeometry x="300" y="380" width="60" height="60" as="geometry"/>
                </mxCell>
                <mxCell id="21" value="1" style="whiteSpace=wrap;html=1;" vertex="1" parent="1">
                    <mxGeometry x="360" y="380" width="60" height="60" as="geometry"/>
                </mxCell>
                <mxCell id="25" value="6" style="whiteSpace=wrap;html=1;" vertex="1" parent="1">
                    <mxGeometry x="180" y="380" width="60" height="60" as="geometry"/>
                </mxCell>
                <mxCell id="26" value="7" style="whiteSpace=wrap;html=1;" vertex="1" parent="1">
                    <mxGeometry x="240" y="380" width="60" height="60" as="geometry"/>
                </mxCell>
                <mxCell id="47" value="&lt;b style=&quot;color: rgb(63, 63, 63); scrollbar-color: rgb(226, 226, 226) rgb(251, 251, 251); font-family: Menlo, sans-serif; text-align: left;&quot;&gt;f(n) = (f(n - 1) + m) % n&lt;/b&gt;" style="whiteSpace=wrap;html=1;" vertex="1" parent="1">
                    <mxGeometry x="210" y="10" width="250" height="60" as="geometry"/>
                </mxCell>
                <mxCell id="48" value="f(8) = (f(7) + m) % n" style="text;html=1;align=center;verticalAlign=middle;resizable=0;points=[];autosize=1;strokeColor=none;fillColor=none;" vertex="1" parent="1">
                    <mxGeometry x="285" y="98" width="130" height="30" as="geometry"/>
                </mxCell>
                <mxCell id="49" value="&lt;span style=&quot;color: rgb(0, 0, 0);&quot;&gt;f(7) = (f(6) + 3) % 7&lt;/span&gt;" style="text;html=1;align=center;verticalAlign=middle;resizable=0;points=[];autosize=1;strokeColor=none;fillColor=none;" vertex="1" parent="1">
                    <mxGeometry x="285" y="128" width="130" height="30" as="geometry"/>
                </mxCell>
                <mxCell id="52" value="3" style="whiteSpace=wrap;html=1;" vertex="1" parent="1">
                    <mxGeometry x="420" y="380" width="60" height="60" as="geometry"/>
                </mxCell>
                <mxCell id="53" value="4" style="whiteSpace=wrap;html=1;" vertex="1" parent="1">
                    <mxGeometry x="480" y="380" width="60" height="60" as="geometry"/>
                </mxCell>
                <mxCell id="55" value="&lt;span style=&quot;color: rgb(0, 0, 0);&quot;&gt;f(6) = (f(5) + 3) % 6&lt;/span&gt;" style="text;html=1;align=center;verticalAlign=middle;resizable=0;points=[];autosize=1;strokeColor=none;fillColor=none;" vertex="1" parent="1">
                    <mxGeometry x="440" y="128" width="130" height="30" as="geometry"/>
                </mxCell>
                <mxCell id="56" value="6" style="whiteSpace=wrap;html=1;" vertex="1" parent="1">
                    <mxGeometry x="365" y="480" width="60" height="60" as="geometry"/>
                </mxCell>
                <mxCell id="57" value="7" style="whiteSpace=wrap;html=1;" vertex="1" parent="1">
                    <mxGeometry x="425" y="480" width="60" height="60" as="geometry"/>
                </mxCell>
                <mxCell id="58" value="1" style="whiteSpace=wrap;html=1;" vertex="1" parent="1">
                    <mxGeometry x="185" y="480" width="60" height="60" as="geometry"/>
                </mxCell>
                <mxCell id="59" value="3" style="whiteSpace=wrap;html=1;" vertex="1" parent="1">
                    <mxGeometry x="245" y="480" width="60" height="60" as="geometry"/>
                </mxCell>
                <mxCell id="60" value="4" style="whiteSpace=wrap;html=1;fillColor=#dae8fc;strokeColor=#6c8ebf;" vertex="1" parent="1">
                    <mxGeometry x="305" y="480" width="60" height="60" as="geometry"/>
                </mxCell>
                <mxCell id="61" value="6" style="whiteSpace=wrap;html=1;" vertex="1" parent="1">
                    <mxGeometry x="230" y="590" width="60" height="60" as="geometry"/>
                </mxCell>
                <mxCell id="62" value="7" style="whiteSpace=wrap;html=1;" vertex="1" parent="1">
                    <mxGeometry x="290" y="590" width="60" height="60" as="geometry"/>
                </mxCell>
                <mxCell id="63" value="1" style="whiteSpace=wrap;html=1;" vertex="1" parent="1">
                    <mxGeometry x="350" y="590" width="60" height="60" as="geometry"/>
                </mxCell>
                <mxCell id="64" value="3" style="whiteSpace=wrap;html=1;" vertex="1" parent="1">
                    <mxGeometry x="410" y="590" width="60" height="60" as="geometry"/>
                </mxCell>
            </root>
        </mxGraphModel>
    </diagram>
</mxfile>